<svg width="71" height="71" viewBox="0 0 71 71" fill="none" xmlns="http://www.w3.org/2000/svg">
<path fill-rule="evenodd" clip-rule="evenodd" d="M35.5 4.4375C26.9223 4.4375 19.9688 11.3911 19.9688 19.9688V28.8438C15.0672 28.8438 11.0938 32.8172 11.0938 37.7188V57.6875C11.0938 62.589 15.0672 66.5625 19.9687 66.5625H51.0312C55.9328 66.5625 59.9062 62.589 59.9062 57.6875V37.7188C59.9062 32.8172 55.9328 28.8438 51.0312 28.8438V19.9688C51.0312 11.3911 44.0777 4.4375 35.5 4.4375ZM46.5938 28.8438V19.9688C46.5938 13.8418 41.6269 8.875 35.5 8.875C29.3731 8.875 24.4062 13.8418 24.4062 19.9688V28.8438H46.5938Z" fill="white"/>
<path d="M36.01 36.77C38.15 36.77 39.86 37.33 41.14 38.45C42.44 39.57 43.09 41.15 43.09 43.19C43.09 45.07 42.47 46.54 41.23 47.6C40.01 48.64 38.39 49.17 36.37 49.19L36.22 51.44H31.72L31.57 45.86H33.37C34.91 45.86 36.08 45.67 36.88 45.29C37.7 44.91 38.11 44.22 38.11 43.22C38.11 42.52 37.92 41.97 37.54 41.57C37.16 41.17 36.63 40.97 35.95 40.97C35.23 40.97 34.67 41.18 34.27 41.6C33.87 42 33.67 42.55 33.67 43.25H28.84C28.8 42.03 29.05 40.93 29.59 39.95C30.15 38.97 30.97 38.2 32.05 37.64C33.15 37.06 34.47 36.77 36.01 36.77ZM34.03 59.24C33.13 59.24 32.39 58.98 31.81 58.46C31.25 57.92 30.97 57.26 30.97 56.48C30.97 55.68 31.25 55.01 31.81 54.47C32.39 53.93 33.13 53.66 34.03 53.66C34.91 53.66 35.63 53.93 36.19 54.47C36.77 55.01 37.06 55.68 37.06 56.48C37.06 57.26 36.77 57.92 36.19 58.46C35.63 58.98 34.91 59.24 34.03 59.24Z" fill="#0E1217"/>
</svg>
