<svg width="122" height="122" viewBox="0 0 122 122" fill="none" xmlns="http://www.w3.org/2000/svg">
<rect width="122" height="122" rx="11" fill="#D9D9D9"/>
<path fill-rule="evenodd" clip-rule="evenodd" d="M47.9286 42.6999C47.9286 35.1197 53.7809 28.9749 61.0001 28.9749C68.2192 28.9749 74.0715 35.1197 74.0715 42.6999C74.0715 50.28 68.2192 56.4249 61.0001 56.4249C53.7809 56.4249 47.9286 50.28 47.9286 42.6999Z" fill="#535252"/>
<path fill-rule="evenodd" clip-rule="evenodd" d="M37.0394 85.7211C37.264 72.0273 47.9053 60.9999 61.0001 60.9999C74.0951 60.9999 84.7366 72.0279 84.9607 85.7221C84.9756 86.6303 84.4773 87.4616 83.6911 87.8405C76.7808 91.1698 69.0942 93.0249 61.001 93.0249C52.907 93.0249 45.2197 91.1695 38.309 87.8395C37.5228 87.4607 37.0245 86.6293 37.0394 85.7211Z" fill="#535252"/>
</svg>
